<?xml version="1.0" encoding="utf-8"?>
<!-- Generator: Adobe Illustrator 23.1.1, SVG Export Plug-In . SVG Version: 6.00 Build 0)  -->
<svg version="1.1" id="Layer_1" xmlns="http://www.w3.org/2000/svg" xmlns:xlink="http://www.w3.org/1999/xlink" x="0px" y="0px"
	 viewBox="0 0 58 58" style="enable-background:new 0 0 58 58;" xml:space="preserve">
<style type="text/css">
	.st0{opacity:0.5;fill:#FFD591;enable-background:new    ;}
	.st1{fill:url(#SVGID_1_);}
	.st2{fill:none;stroke:#FFF7E6;stroke-width:2;}
	.st3{fill:none;stroke:#FFF7E6;stroke-linecap:round;stroke-dasharray:1,3;}
	.st4{fill:#874D00;}
	.st5{fill:#FFFFFF;}
</style>
<path class="st0" d="M3.8,6.3c0-2.2,1.8-4,4-4h43c2.2,0,4,1.8,4,4V54c0,2.6-2.5,4.6-5.1,3.9l-19.3-5.4c-0.7-0.2-1.4-0.2-2.2,0
	L8.9,57.8c-2.6,0.7-5.1-1.2-5.1-3.9V6.3z"/>
<linearGradient id="SVGID_1_" gradientUnits="userSpaceOnUse" x1="288.0071" y1="-352.3579" x2="326.5443" y2="-318.0247" gradientTransform="matrix(1 0 0 -1 -277 -307)">
	<stop  offset="0" style="stop-color:#F5AF19"/>
	<stop  offset="1" style="stop-color:#F12711"/>
</linearGradient>
<path class="st1" d="M5.8,5.3c0-2.2,1.8-4,4-4h41c2.2,0,4,1.8,4,4V51c0,2.6-2.5,4.6-5.1,3.9l-18.3-5.1c-0.7-0.2-1.5-0.2-2.2,0
	l-18.3,5.1c-2.6,0.7-5.1-1.2-5.1-3.9V5.3z"/>
<g>
	<path class="st2" d="M9.8,2.3h41c1.7,0,3,1.3,3,3V51c0,2-1.9,3.4-3.8,2.9l-18.3-5.1c-0.9-0.2-1.8-0.2-2.7,0l-18.3,5.1
		C8.7,54.4,6.8,53,6.8,51V5.3C6.8,3.6,8.2,2.3,9.8,2.3z"/>
</g>
<path class="st3" d="M9.8,7.3c0-1.1,0.9-2,2-2h37c1.1,0,2,0.9,2,2v40.4c0,1.3-1.3,2.3-2.5,1.9l-17.4-4.8c-0.3-0.1-0.7-0.1-1.1,0
	l-17.4,4.8c-1.3,0.3-2.5-0.6-2.5-1.9V7.3z"/>
<path class="st4" d="M21.9,22.7v12.6H19v-5.2h-5.7v5.2h-2.9V22.7h2.9v5H19v-5H21.9z M31.1,35.5c-1.3,0-2.5-0.3-3.5-0.8
	c-1-0.6-1.9-1.3-2.5-2.3c-0.6-1-0.9-2.1-0.9-3.3s0.3-2.3,0.9-3.3c0.6-1,1.4-1.8,2.5-2.3c1.1-0.6,2.2-0.8,3.5-0.8
	c1.3,0,2.5,0.3,3.5,0.8c1,0.6,1.9,1.3,2.5,2.3c0.6,1,0.9,2.1,0.9,3.3s-0.3,2.4-0.9,3.3c-0.6,1-1.4,1.8-2.5,2.3
	C33.6,35.2,32.4,35.5,31.1,35.5z M31.1,33c0.7,0,1.4-0.2,2-0.5c0.6-0.3,1.1-0.8,1.4-1.4c0.3-0.6,0.5-1.3,0.5-2.1
	c0-0.8-0.2-1.5-0.5-2.1c-0.3-0.6-0.8-1.1-1.4-1.4c-0.6-0.3-1.3-0.5-2-0.5c-0.7,0-1.4,0.2-2,0.5c-0.6,0.3-1.1,0.8-1.4,1.4
	c-0.3,0.6-0.5,1.3-0.5,2.1c0,0.8,0.2,1.5,0.5,2.1c0.3,0.6,0.8,1.1,1.4,1.4C29.7,32.8,30.3,33,31.1,33z M42.7,25h-4v-2.4h11V25h-4
	v10.2h-2.9V25z"/>
<path class="st5" d="M22.9,21.7v12.6H20v-5.2h-5.7v5.2h-2.9V21.7h2.9v5H20v-5H22.9z M32.1,34.5c-1.3,0-2.5-0.3-3.5-0.8
	c-1-0.6-1.9-1.3-2.5-2.3c-0.6-1-0.9-2.1-0.9-3.3s0.3-2.3,0.9-3.3c0.6-1,1.4-1.8,2.5-2.3c1.1-0.6,2.2-0.8,3.5-0.8
	c1.3,0,2.5,0.3,3.5,0.8c1,0.6,1.9,1.3,2.5,2.3c0.6,1,0.9,2.1,0.9,3.3s-0.3,2.4-0.9,3.3c-0.6,1-1.4,1.8-2.5,2.3
	C34.6,34.2,33.4,34.5,32.1,34.5z M32.1,32c0.7,0,1.4-0.2,2-0.5c0.6-0.3,1.1-0.8,1.4-1.4c0.3-0.6,0.5-1.3,0.5-2.1
	c0-0.8-0.2-1.5-0.5-2.1c-0.3-0.6-0.8-1.1-1.4-1.4c-0.6-0.3-1.3-0.5-2-0.5c-0.7,0-1.4,0.2-2,0.5c-0.6,0.3-1.1,0.8-1.4,1.4
	c-0.3,0.6-0.5,1.3-0.5,2.1c0,0.8,0.2,1.5,0.5,2.1c0.3,0.6,0.8,1.1,1.4,1.4C30.7,31.8,31.3,32,32.1,32z M43.7,24h-4v-2.4h11V24h-4
	v10.2h-2.9V24z"/>
</svg>
